# xmcd CD database file
#
# Track frame offsets:
#	150
#	19306
#	38714
#	59051
#	77352
#	111325
#	126637
#	145995
#	164711
#	221820
#
# Disc length: 3538 seconds
#
# Revision: 0
# Processed by: cddbd v1.5.1PL2 Copyright (c) Steve Scherf et al.
# Submitted via: Feurio! 1.68 - http://www.feurio.com
#
DISCID=9c0dd00a
DTITLE=Gary Moore - Cass Lewis, Darrin Mooney
DYEAR=1900
DGENRE=Bluesrock
TTITLE0=When The Sun Goes Down
TTITLE1=Rectify
TTITLE2=Wasn't Born In Chicago
TTITLE3=Stand Up
TTITLE4=Just Can't Let You Go
TTITLE5=My Baby
TTITLE6=World Of Confusion
TTITLE7=World Keep Turnin' Round
TTITLE8=Ball and Chain
TTITLE9=Who Knows
EXTD=
EXTT0=
EXTT1=
EXTT2=
EXTT3=
EXTT4=
EXTT5=
EXTT6=
EXTT7=
EXTT8=
EXTT9=
PLAYORDER=
